M48
; DRILL file {KiCad 5.1.5} date Wed Feb 12 19:01:29 2020
; FORMAT={-:-/ absolute / metric / decimal}
; #@! TF.CreationDate,2020-02-12T19:01:29+05:30
; #@! TF.GenerationSoftware,Kicad,Pcbnew,5.1.5
FMAT,2
METRIC
T1C0.700
T2C0.762
T3C0.800
T4C0.800
T5C1.000
%
G90
G05
T1
X140.716Y-75.184
X140.716Y-101.092
X145.796Y-101.092
X140.716Y-103.57
X145.796Y-103.57
X140.716Y-80.264
T2
X141.351Y-107.823
X141.351Y-110.363
X141.351Y-112.903
X141.351Y-115.443
X143.891Y-107.823
X143.891Y-110.363
X143.891Y-112.903
X143.891Y-115.443
T3
X130.919Y-75.616
X130.919Y-78.156
X130.919Y-80.696
X130.919Y-83.236
X130.919Y-85.776
X130.919Y-88.316
X130.919Y-90.856
X130.919Y-93.396
X130.919Y-95.936
X130.919Y-98.476
X130.919Y-101.016
X130.919Y-103.556
X130.919Y-106.096
X130.919Y-108.636
X138.539Y-75.616
X138.539Y-78.156
X138.539Y-80.696
X138.539Y-83.236
X138.539Y-85.776
X138.539Y-88.316
X138.539Y-90.856
X138.539Y-93.396
X138.539Y-95.936
X138.539Y-98.476
X138.539Y-101.016
X138.539Y-103.556
X138.539Y-106.096
X138.539Y-108.636
T4
X144.907Y-92.583
X144.907Y-96.393
T5
X141.478Y-83.058
X141.478Y-85.598
X141.478Y-88.138
X141.478Y-90.678
X141.478Y-93.218
X141.478Y-95.758
X141.478Y-98.298
T0
M30
