G04 #@! TF.GenerationSoftware,KiCad,Pcbnew,5.1.5*
G04 #@! TF.CreationDate,2020-02-12T19:01:32+05:30*
G04 #@! TF.ProjectId,schematics,73636865-6d61-4746-9963-732e6b696361,rev?*
G04 #@! TF.SameCoordinates,Original*
G04 #@! TF.FileFunction,Copper,L2,Bot*
G04 #@! TF.FilePolarity,Positive*
%FSLAX46Y46*%
G04 Gerber Fmt 4.6, Leading zero omitted, Abs format (unit mm)*
G04 Created by KiCad (PCBNEW 5.1.5) date 2020-02-12 19:01:32*
%MOMM*%
%LPD*%
G04 APERTURE LIST*
%ADD10R,1.998980X1.998980*%
%ADD11C,1.998980*%
%ADD12R,1.700000X1.700000*%
%ADD13O,1.700000X1.700000*%
%ADD14C,1.400000*%
%ADD15O,1.400000X1.400000*%
%ADD16R,1.600000X1.600000*%
%ADD17O,1.600000X1.600000*%
%ADD18R,1.524000X1.524000*%
%ADD19C,1.524000*%
%ADD20C,0.250000*%
%ADD21C,0.254000*%
G04 APERTURE END LIST*
D10*
X144907000Y-96393000D03*
D11*
X144907000Y-92583000D03*
D12*
X141478000Y-83058000D03*
D13*
X141478000Y-85598000D03*
X141478000Y-88138000D03*
X141478000Y-90678000D03*
X141478000Y-93218000D03*
X141478000Y-95758000D03*
X141478000Y-98298000D03*
D14*
X140716000Y-80264000D03*
D15*
X140716000Y-75184000D03*
D14*
X145796000Y-101092000D03*
D15*
X140716000Y-101092000D03*
X145796000Y-103570001D03*
D14*
X140716000Y-103570001D03*
D16*
X130919001Y-75616001D03*
D17*
X138539001Y-108636001D03*
X130919001Y-78156001D03*
X138539001Y-106096001D03*
X130919001Y-80696001D03*
X138539001Y-103556001D03*
X130919001Y-83236001D03*
X138539001Y-101016001D03*
X130919001Y-85776001D03*
X138539001Y-98476001D03*
X130919001Y-88316001D03*
X138539001Y-95936001D03*
X130919001Y-90856001D03*
X138539001Y-93396001D03*
X130919001Y-93396001D03*
X138539001Y-90856001D03*
X130919001Y-95936001D03*
X138539001Y-88316001D03*
X130919001Y-98476001D03*
X138539001Y-85776001D03*
X130919001Y-101016001D03*
X138539001Y-83236001D03*
X130919001Y-103556001D03*
X138539001Y-80696001D03*
X130919001Y-106096001D03*
X138539001Y-78156001D03*
X130919001Y-108636001D03*
X138539001Y-75616001D03*
D18*
X143891000Y-115443000D03*
D19*
X141351000Y-115443000D03*
X143891000Y-112903000D03*
X141351000Y-112903000D03*
X143891000Y-110363000D03*
X141351000Y-110363000D03*
X143891000Y-107823000D03*
X141351000Y-107823000D03*
D20*
X140628001Y-84748001D02*
X141478000Y-85598000D01*
X139664002Y-83784002D02*
X140628001Y-84748001D01*
X139664002Y-79281002D02*
X139664002Y-83784002D01*
X138539001Y-78156001D02*
X139664002Y-79281002D01*
X140302999Y-85059409D02*
X138539001Y-83295411D01*
X140302999Y-89502999D02*
X140302999Y-85059409D01*
X138539001Y-83295411D02*
X138539001Y-83236001D01*
X141478000Y-90678000D02*
X140302999Y-89502999D01*
X141299999Y-95936001D02*
X141478000Y-95758000D01*
X138539001Y-95936001D02*
X141299999Y-95936001D01*
X144272000Y-95758000D02*
X144907000Y-96393000D01*
X141478000Y-95758000D02*
X144272000Y-95758000D01*
X129794000Y-84361002D02*
X130119002Y-84036000D01*
X130119002Y-84036000D02*
X130919001Y-83236001D01*
X129794000Y-106636002D02*
X129794000Y-84361002D01*
X130379000Y-107221002D02*
X129794000Y-106636002D01*
X139671372Y-107221002D02*
X130379000Y-107221002D01*
X140273370Y-107823000D02*
X139671372Y-107221002D01*
X141351000Y-107823000D02*
X140273370Y-107823000D01*
X139339000Y-99276000D02*
X138539001Y-98476001D01*
X139690999Y-104062002D02*
X139690999Y-99627999D01*
X142438001Y-106809004D02*
X139690999Y-104062002D01*
X142438001Y-108910001D02*
X142438001Y-106809004D01*
X139690999Y-99627999D02*
X139339000Y-99276000D01*
X143891000Y-110363000D02*
X142438001Y-108910001D01*
D21*
G36*
X143269438Y-97392490D02*
G01*
X143281698Y-97516972D01*
X143318008Y-97636670D01*
X143376973Y-97746984D01*
X143456325Y-97843675D01*
X143553016Y-97923027D01*
X143663330Y-97981992D01*
X143783028Y-98018302D01*
X143907510Y-98030562D01*
X145906490Y-98030562D01*
X146030972Y-98018302D01*
X146150670Y-97981992D01*
X146260984Y-97923027D01*
X146279000Y-97908241D01*
X146279000Y-99847073D01*
X146185405Y-99808304D01*
X145927486Y-99757000D01*
X145664514Y-99757000D01*
X145406595Y-99808304D01*
X145163641Y-99908939D01*
X144944987Y-100055038D01*
X144759038Y-100240987D01*
X144612939Y-100459641D01*
X144512304Y-100702595D01*
X144461000Y-100960514D01*
X144461000Y-101223486D01*
X144512304Y-101481405D01*
X144612939Y-101724359D01*
X144759038Y-101943013D01*
X144944987Y-102128962D01*
X145163641Y-102275061D01*
X145306685Y-102334312D01*
X145216877Y-102367148D01*
X144993340Y-102503242D01*
X144800649Y-102680331D01*
X144646208Y-102891609D01*
X144535953Y-103128957D01*
X144503284Y-103236672D01*
X144626626Y-103443001D01*
X145669000Y-103443001D01*
X145669000Y-103423001D01*
X145923000Y-103423001D01*
X145923000Y-103443001D01*
X145943000Y-103443001D01*
X145943000Y-103697001D01*
X145923000Y-103697001D01*
X145923000Y-104740202D01*
X146129330Y-104862723D01*
X146279000Y-104807999D01*
X146279000Y-117450000D01*
X130073000Y-117450000D01*
X130073000Y-109796581D01*
X130239274Y-109907681D01*
X130500427Y-110015854D01*
X130777666Y-110071001D01*
X131060336Y-110071001D01*
X131337575Y-110015854D01*
X131598728Y-109907681D01*
X131833760Y-109750638D01*
X132033638Y-109550760D01*
X132190681Y-109315728D01*
X132298854Y-109054575D01*
X132354001Y-108777336D01*
X132354001Y-108494666D01*
X132298854Y-108217427D01*
X132200924Y-107981002D01*
X137257078Y-107981002D01*
X137159148Y-108217427D01*
X137104001Y-108494666D01*
X137104001Y-108777336D01*
X137159148Y-109054575D01*
X137267321Y-109315728D01*
X137424364Y-109550760D01*
X137624242Y-109750638D01*
X137859274Y-109907681D01*
X138120427Y-110015854D01*
X138397666Y-110071001D01*
X138680336Y-110071001D01*
X138957575Y-110015854D01*
X139218728Y-109907681D01*
X139453760Y-109750638D01*
X139653638Y-109550760D01*
X139810681Y-109315728D01*
X139918854Y-109054575D01*
X139974001Y-108777336D01*
X139974001Y-108524739D01*
X139981123Y-108528546D01*
X140124384Y-108572003D01*
X140174617Y-108576951D01*
X140265880Y-108713535D01*
X140460465Y-108908120D01*
X140689273Y-109061005D01*
X140766515Y-109093000D01*
X140689273Y-109124995D01*
X140460465Y-109277880D01*
X140265880Y-109472465D01*
X140112995Y-109701273D01*
X140007686Y-109955510D01*
X139954000Y-110225408D01*
X139954000Y-110500592D01*
X140007686Y-110770490D01*
X140112995Y-111024727D01*
X140265880Y-111253535D01*
X140460465Y-111448120D01*
X140689273Y-111601005D01*
X140766515Y-111633000D01*
X140689273Y-111664995D01*
X140460465Y-111817880D01*
X140265880Y-112012465D01*
X140112995Y-112241273D01*
X140007686Y-112495510D01*
X139954000Y-112765408D01*
X139954000Y-113040592D01*
X140007686Y-113310490D01*
X140112995Y-113564727D01*
X140265880Y-113793535D01*
X140460465Y-113988120D01*
X140689273Y-114141005D01*
X140766515Y-114173000D01*
X140689273Y-114204995D01*
X140460465Y-114357880D01*
X140265880Y-114552465D01*
X140112995Y-114781273D01*
X140007686Y-115035510D01*
X139954000Y-115305408D01*
X139954000Y-115580592D01*
X140007686Y-115850490D01*
X140112995Y-116104727D01*
X140265880Y-116333535D01*
X140460465Y-116528120D01*
X140689273Y-116681005D01*
X140943510Y-116786314D01*
X141213408Y-116840000D01*
X141488592Y-116840000D01*
X141758490Y-116786314D01*
X142012727Y-116681005D01*
X142241535Y-116528120D01*
X142436120Y-116333535D01*
X142494920Y-116245535D01*
X142503188Y-116329482D01*
X142539498Y-116449180D01*
X142598463Y-116559494D01*
X142677815Y-116656185D01*
X142774506Y-116735537D01*
X142884820Y-116794502D01*
X143004518Y-116830812D01*
X143129000Y-116843072D01*
X143605250Y-116840000D01*
X143764000Y-116681250D01*
X143764000Y-115570000D01*
X144018000Y-115570000D01*
X144018000Y-116681250D01*
X144176750Y-116840000D01*
X144653000Y-116843072D01*
X144777482Y-116830812D01*
X144897180Y-116794502D01*
X145007494Y-116735537D01*
X145104185Y-116656185D01*
X145183537Y-116559494D01*
X145242502Y-116449180D01*
X145278812Y-116329482D01*
X145291072Y-116205000D01*
X145288000Y-115728750D01*
X145129250Y-115570000D01*
X144018000Y-115570000D01*
X143764000Y-115570000D01*
X143744000Y-115570000D01*
X143744000Y-115316000D01*
X143764000Y-115316000D01*
X143764000Y-115296000D01*
X144018000Y-115296000D01*
X144018000Y-115316000D01*
X145129250Y-115316000D01*
X145288000Y-115157250D01*
X145291072Y-114681000D01*
X145278812Y-114556518D01*
X145242502Y-114436820D01*
X145183537Y-114326506D01*
X145104185Y-114229815D01*
X145007494Y-114150463D01*
X144897180Y-114091498D01*
X144777482Y-114055188D01*
X144693535Y-114046920D01*
X144781535Y-113988120D01*
X144976120Y-113793535D01*
X145129005Y-113564727D01*
X145234314Y-113310490D01*
X145288000Y-113040592D01*
X145288000Y-112765408D01*
X145234314Y-112495510D01*
X145129005Y-112241273D01*
X144976120Y-112012465D01*
X144781535Y-111817880D01*
X144552727Y-111664995D01*
X144475485Y-111633000D01*
X144552727Y-111601005D01*
X144781535Y-111448120D01*
X144976120Y-111253535D01*
X145129005Y-111024727D01*
X145234314Y-110770490D01*
X145288000Y-110500592D01*
X145288000Y-110225408D01*
X145234314Y-109955510D01*
X145129005Y-109701273D01*
X144976120Y-109472465D01*
X144781535Y-109277880D01*
X144552727Y-109124995D01*
X144475485Y-109093000D01*
X144552727Y-109061005D01*
X144781535Y-108908120D01*
X144976120Y-108713535D01*
X145129005Y-108484727D01*
X145234314Y-108230490D01*
X145288000Y-107960592D01*
X145288000Y-107685408D01*
X145234314Y-107415510D01*
X145129005Y-107161273D01*
X144976120Y-106932465D01*
X144781535Y-106737880D01*
X144552727Y-106584995D01*
X144298490Y-106479686D01*
X144028592Y-106426000D01*
X143753408Y-106426000D01*
X143483510Y-106479686D01*
X143229273Y-106584995D01*
X143175205Y-106621122D01*
X143143547Y-106516757D01*
X143072975Y-106384728D01*
X143039350Y-106343756D01*
X143001800Y-106298000D01*
X143001796Y-106297996D01*
X142978002Y-106269003D01*
X142949009Y-106245209D01*
X141413401Y-104709602D01*
X141567013Y-104606963D01*
X141752962Y-104421014D01*
X141899061Y-104202360D01*
X141999696Y-103959406D01*
X142010850Y-103903330D01*
X144503284Y-103903330D01*
X144535953Y-104011045D01*
X144646208Y-104248393D01*
X144800649Y-104459671D01*
X144993340Y-104636760D01*
X145216877Y-104772854D01*
X145462670Y-104862723D01*
X145669000Y-104740202D01*
X145669000Y-103697001D01*
X144626626Y-103697001D01*
X144503284Y-103903330D01*
X142010850Y-103903330D01*
X142051000Y-103701487D01*
X142051000Y-103438515D01*
X141999696Y-103180596D01*
X141899061Y-102937642D01*
X141752962Y-102718988D01*
X141567013Y-102533039D01*
X141348359Y-102386940D01*
X141213309Y-102331001D01*
X141348359Y-102275061D01*
X141567013Y-102128962D01*
X141752962Y-101943013D01*
X141899061Y-101724359D01*
X141999696Y-101481405D01*
X142051000Y-101223486D01*
X142051000Y-100960514D01*
X141999696Y-100702595D01*
X141899061Y-100459641D01*
X141752962Y-100240987D01*
X141567013Y-100055038D01*
X141348359Y-99908939D01*
X141105405Y-99808304D01*
X140847486Y-99757000D01*
X140584514Y-99757000D01*
X140450999Y-99783558D01*
X140450999Y-99665324D01*
X140454675Y-99627999D01*
X140450999Y-99590674D01*
X140450999Y-99590666D01*
X140440002Y-99479013D01*
X140396545Y-99335752D01*
X140374612Y-99294719D01*
X140531368Y-99451475D01*
X140774589Y-99613990D01*
X141044842Y-99725932D01*
X141331740Y-99783000D01*
X141624260Y-99783000D01*
X141911158Y-99725932D01*
X142181411Y-99613990D01*
X142424632Y-99451475D01*
X142631475Y-99244632D01*
X142793990Y-99001411D01*
X142905932Y-98731158D01*
X142963000Y-98444260D01*
X142963000Y-98151740D01*
X142905932Y-97864842D01*
X142793990Y-97594589D01*
X142631475Y-97351368D01*
X142424632Y-97144525D01*
X142250240Y-97028000D01*
X142424632Y-96911475D01*
X142631475Y-96704632D01*
X142756178Y-96518000D01*
X143269438Y-96518000D01*
X143269438Y-97392490D01*
G37*
X143269438Y-97392490D02*
X143281698Y-97516972D01*
X143318008Y-97636670D01*
X143376973Y-97746984D01*
X143456325Y-97843675D01*
X143553016Y-97923027D01*
X143663330Y-97981992D01*
X143783028Y-98018302D01*
X143907510Y-98030562D01*
X145906490Y-98030562D01*
X146030972Y-98018302D01*
X146150670Y-97981992D01*
X146260984Y-97923027D01*
X146279000Y-97908241D01*
X146279000Y-99847073D01*
X146185405Y-99808304D01*
X145927486Y-99757000D01*
X145664514Y-99757000D01*
X145406595Y-99808304D01*
X145163641Y-99908939D01*
X144944987Y-100055038D01*
X144759038Y-100240987D01*
X144612939Y-100459641D01*
X144512304Y-100702595D01*
X144461000Y-100960514D01*
X144461000Y-101223486D01*
X144512304Y-101481405D01*
X144612939Y-101724359D01*
X144759038Y-101943013D01*
X144944987Y-102128962D01*
X145163641Y-102275061D01*
X145306685Y-102334312D01*
X145216877Y-102367148D01*
X144993340Y-102503242D01*
X144800649Y-102680331D01*
X144646208Y-102891609D01*
X144535953Y-103128957D01*
X144503284Y-103236672D01*
X144626626Y-103443001D01*
X145669000Y-103443001D01*
X145669000Y-103423001D01*
X145923000Y-103423001D01*
X145923000Y-103443001D01*
X145943000Y-103443001D01*
X145943000Y-103697001D01*
X145923000Y-103697001D01*
X145923000Y-104740202D01*
X146129330Y-104862723D01*
X146279000Y-104807999D01*
X146279000Y-117450000D01*
X130073000Y-117450000D01*
X130073000Y-109796581D01*
X130239274Y-109907681D01*
X130500427Y-110015854D01*
X130777666Y-110071001D01*
X131060336Y-110071001D01*
X131337575Y-110015854D01*
X131598728Y-109907681D01*
X131833760Y-109750638D01*
X132033638Y-109550760D01*
X132190681Y-109315728D01*
X132298854Y-109054575D01*
X132354001Y-108777336D01*
X132354001Y-108494666D01*
X132298854Y-108217427D01*
X132200924Y-107981002D01*
X137257078Y-107981002D01*
X137159148Y-108217427D01*
X137104001Y-108494666D01*
X137104001Y-108777336D01*
X137159148Y-109054575D01*
X137267321Y-109315728D01*
X137424364Y-109550760D01*
X137624242Y-109750638D01*
X137859274Y-109907681D01*
X138120427Y-110015854D01*
X138397666Y-110071001D01*
X138680336Y-110071001D01*
X138957575Y-110015854D01*
X139218728Y-109907681D01*
X139453760Y-109750638D01*
X139653638Y-109550760D01*
X139810681Y-109315728D01*
X139918854Y-109054575D01*
X139974001Y-108777336D01*
X139974001Y-108524739D01*
X139981123Y-108528546D01*
X140124384Y-108572003D01*
X140174617Y-108576951D01*
X140265880Y-108713535D01*
X140460465Y-108908120D01*
X140689273Y-109061005D01*
X140766515Y-109093000D01*
X140689273Y-109124995D01*
X140460465Y-109277880D01*
X140265880Y-109472465D01*
X140112995Y-109701273D01*
X140007686Y-109955510D01*
X139954000Y-110225408D01*
X139954000Y-110500592D01*
X140007686Y-110770490D01*
X140112995Y-111024727D01*
X140265880Y-111253535D01*
X140460465Y-111448120D01*
X140689273Y-111601005D01*
X140766515Y-111633000D01*
X140689273Y-111664995D01*
X140460465Y-111817880D01*
X140265880Y-112012465D01*
X140112995Y-112241273D01*
X140007686Y-112495510D01*
X139954000Y-112765408D01*
X139954000Y-113040592D01*
X140007686Y-113310490D01*
X140112995Y-113564727D01*
X140265880Y-113793535D01*
X140460465Y-113988120D01*
X140689273Y-114141005D01*
X140766515Y-114173000D01*
X140689273Y-114204995D01*
X140460465Y-114357880D01*
X140265880Y-114552465D01*
X140112995Y-114781273D01*
X140007686Y-115035510D01*
X139954000Y-115305408D01*
X139954000Y-115580592D01*
X140007686Y-115850490D01*
X140112995Y-116104727D01*
X140265880Y-116333535D01*
X140460465Y-116528120D01*
X140689273Y-116681005D01*
X140943510Y-116786314D01*
X141213408Y-116840000D01*
X141488592Y-116840000D01*
X141758490Y-116786314D01*
X142012727Y-116681005D01*
X142241535Y-116528120D01*
X142436120Y-116333535D01*
X142494920Y-116245535D01*
X142503188Y-116329482D01*
X142539498Y-116449180D01*
X142598463Y-116559494D01*
X142677815Y-116656185D01*
X142774506Y-116735537D01*
X142884820Y-116794502D01*
X143004518Y-116830812D01*
X143129000Y-116843072D01*
X143605250Y-116840000D01*
X143764000Y-116681250D01*
X143764000Y-115570000D01*
X144018000Y-115570000D01*
X144018000Y-116681250D01*
X144176750Y-116840000D01*
X144653000Y-116843072D01*
X144777482Y-116830812D01*
X144897180Y-116794502D01*
X145007494Y-116735537D01*
X145104185Y-116656185D01*
X145183537Y-116559494D01*
X145242502Y-116449180D01*
X145278812Y-116329482D01*
X145291072Y-116205000D01*
X145288000Y-115728750D01*
X145129250Y-115570000D01*
X144018000Y-115570000D01*
X143764000Y-115570000D01*
X143744000Y-115570000D01*
X143744000Y-115316000D01*
X143764000Y-115316000D01*
X143764000Y-115296000D01*
X144018000Y-115296000D01*
X144018000Y-115316000D01*
X145129250Y-115316000D01*
X145288000Y-115157250D01*
X145291072Y-114681000D01*
X145278812Y-114556518D01*
X145242502Y-114436820D01*
X145183537Y-114326506D01*
X145104185Y-114229815D01*
X145007494Y-114150463D01*
X144897180Y-114091498D01*
X144777482Y-114055188D01*
X144693535Y-114046920D01*
X144781535Y-113988120D01*
X144976120Y-113793535D01*
X145129005Y-113564727D01*
X145234314Y-113310490D01*
X145288000Y-113040592D01*
X145288000Y-112765408D01*
X145234314Y-112495510D01*
X145129005Y-112241273D01*
X144976120Y-112012465D01*
X144781535Y-111817880D01*
X144552727Y-111664995D01*
X144475485Y-111633000D01*
X144552727Y-111601005D01*
X144781535Y-111448120D01*
X144976120Y-111253535D01*
X145129005Y-111024727D01*
X145234314Y-110770490D01*
X145288000Y-110500592D01*
X145288000Y-110225408D01*
X145234314Y-109955510D01*
X145129005Y-109701273D01*
X144976120Y-109472465D01*
X144781535Y-109277880D01*
X144552727Y-109124995D01*
X144475485Y-109093000D01*
X144552727Y-109061005D01*
X144781535Y-108908120D01*
X144976120Y-108713535D01*
X145129005Y-108484727D01*
X145234314Y-108230490D01*
X145288000Y-107960592D01*
X145288000Y-107685408D01*
X145234314Y-107415510D01*
X145129005Y-107161273D01*
X144976120Y-106932465D01*
X144781535Y-106737880D01*
X144552727Y-106584995D01*
X144298490Y-106479686D01*
X144028592Y-106426000D01*
X143753408Y-106426000D01*
X143483510Y-106479686D01*
X143229273Y-106584995D01*
X143175205Y-106621122D01*
X143143547Y-106516757D01*
X143072975Y-106384728D01*
X143039350Y-106343756D01*
X143001800Y-106298000D01*
X143001796Y-106297996D01*
X142978002Y-106269003D01*
X142949009Y-106245209D01*
X141413401Y-104709602D01*
X141567013Y-104606963D01*
X141752962Y-104421014D01*
X141899061Y-104202360D01*
X141999696Y-103959406D01*
X142010850Y-103903330D01*
X144503284Y-103903330D01*
X144535953Y-104011045D01*
X144646208Y-104248393D01*
X144800649Y-104459671D01*
X144993340Y-104636760D01*
X145216877Y-104772854D01*
X145462670Y-104862723D01*
X145669000Y-104740202D01*
X145669000Y-103697001D01*
X144626626Y-103697001D01*
X144503284Y-103903330D01*
X142010850Y-103903330D01*
X142051000Y-103701487D01*
X142051000Y-103438515D01*
X141999696Y-103180596D01*
X141899061Y-102937642D01*
X141752962Y-102718988D01*
X141567013Y-102533039D01*
X141348359Y-102386940D01*
X141213309Y-102331001D01*
X141348359Y-102275061D01*
X141567013Y-102128962D01*
X141752962Y-101943013D01*
X141899061Y-101724359D01*
X141999696Y-101481405D01*
X142051000Y-101223486D01*
X142051000Y-100960514D01*
X141999696Y-100702595D01*
X141899061Y-100459641D01*
X141752962Y-100240987D01*
X141567013Y-100055038D01*
X141348359Y-99908939D01*
X141105405Y-99808304D01*
X140847486Y-99757000D01*
X140584514Y-99757000D01*
X140450999Y-99783558D01*
X140450999Y-99665324D01*
X140454675Y-99627999D01*
X140450999Y-99590674D01*
X140450999Y-99590666D01*
X140440002Y-99479013D01*
X140396545Y-99335752D01*
X140374612Y-99294719D01*
X140531368Y-99451475D01*
X140774589Y-99613990D01*
X141044842Y-99725932D01*
X141331740Y-99783000D01*
X141624260Y-99783000D01*
X141911158Y-99725932D01*
X142181411Y-99613990D01*
X142424632Y-99451475D01*
X142631475Y-99244632D01*
X142793990Y-99001411D01*
X142905932Y-98731158D01*
X142963000Y-98444260D01*
X142963000Y-98151740D01*
X142905932Y-97864842D01*
X142793990Y-97594589D01*
X142631475Y-97351368D01*
X142424632Y-97144525D01*
X142250240Y-97028000D01*
X142424632Y-96911475D01*
X142631475Y-96704632D01*
X142756178Y-96518000D01*
X143269438Y-96518000D01*
X143269438Y-97392490D01*
G36*
X137624242Y-74501364D02*
G01*
X137424364Y-74701242D01*
X137267321Y-74936274D01*
X137159148Y-75197427D01*
X137104001Y-75474666D01*
X137104001Y-75757336D01*
X137159148Y-76034575D01*
X137267321Y-76295728D01*
X137424364Y-76530760D01*
X137624242Y-76730638D01*
X137856760Y-76886001D01*
X137624242Y-77041364D01*
X137424364Y-77241242D01*
X137267321Y-77476274D01*
X137159148Y-77737427D01*
X137104001Y-78014666D01*
X137104001Y-78297336D01*
X137159148Y-78574575D01*
X137267321Y-78835728D01*
X137424364Y-79070760D01*
X137624242Y-79270638D01*
X137856760Y-79426001D01*
X137624242Y-79581364D01*
X137424364Y-79781242D01*
X137267321Y-80016274D01*
X137159148Y-80277427D01*
X137104001Y-80554666D01*
X137104001Y-80837336D01*
X137159148Y-81114575D01*
X137267321Y-81375728D01*
X137424364Y-81610760D01*
X137624242Y-81810638D01*
X137856760Y-81966001D01*
X137624242Y-82121364D01*
X137424364Y-82321242D01*
X137267321Y-82556274D01*
X137159148Y-82817427D01*
X137104001Y-83094666D01*
X137104001Y-83377336D01*
X137159148Y-83654575D01*
X137267321Y-83915728D01*
X137424364Y-84150760D01*
X137624242Y-84350638D01*
X137856760Y-84506001D01*
X137624242Y-84661364D01*
X137424364Y-84861242D01*
X137267321Y-85096274D01*
X137159148Y-85357427D01*
X137104001Y-85634666D01*
X137104001Y-85917336D01*
X137159148Y-86194575D01*
X137267321Y-86455728D01*
X137424364Y-86690760D01*
X137624242Y-86890638D01*
X137856760Y-87046001D01*
X137624242Y-87201364D01*
X137424364Y-87401242D01*
X137267321Y-87636274D01*
X137159148Y-87897427D01*
X137104001Y-88174666D01*
X137104001Y-88457336D01*
X137159148Y-88734575D01*
X137267321Y-88995728D01*
X137424364Y-89230760D01*
X137624242Y-89430638D01*
X137859274Y-89587681D01*
X137869866Y-89592068D01*
X137683870Y-89703616D01*
X137475482Y-89892587D01*
X137307964Y-90118581D01*
X137187755Y-90372914D01*
X137147097Y-90506962D01*
X137269086Y-90729001D01*
X138412001Y-90729001D01*
X138412001Y-90709001D01*
X138666001Y-90709001D01*
X138666001Y-90729001D01*
X139808916Y-90729001D01*
X139930905Y-90506962D01*
X139890247Y-90372914D01*
X139770038Y-90118581D01*
X139602520Y-89892587D01*
X139394132Y-89703616D01*
X139208136Y-89592068D01*
X139218728Y-89587681D01*
X139453760Y-89430638D01*
X139542999Y-89341399D01*
X139542999Y-89465676D01*
X139539323Y-89502999D01*
X139542999Y-89540321D01*
X139542999Y-89540331D01*
X139553996Y-89651984D01*
X139581109Y-89741364D01*
X139597453Y-89795245D01*
X139668025Y-89927275D01*
X139679488Y-89941242D01*
X139762998Y-90043000D01*
X139792002Y-90066803D01*
X140036791Y-90311592D01*
X139993000Y-90531740D01*
X139993000Y-90824260D01*
X140050068Y-91111158D01*
X140162010Y-91381411D01*
X140324525Y-91624632D01*
X140531368Y-91831475D01*
X140713534Y-91953195D01*
X140596645Y-92022822D01*
X140380412Y-92217731D01*
X140206359Y-92451080D01*
X140081175Y-92713901D01*
X140036524Y-92861110D01*
X140157845Y-93091000D01*
X141351000Y-93091000D01*
X141351000Y-93071000D01*
X141605000Y-93071000D01*
X141605000Y-93091000D01*
X142798155Y-93091000D01*
X142919476Y-92861110D01*
X142874825Y-92713901D01*
X142842300Y-92645615D01*
X143265795Y-92645615D01*
X143309546Y-92964595D01*
X143414686Y-93268911D01*
X143507601Y-93442742D01*
X143771950Y-93538445D01*
X144727395Y-92583000D01*
X143771950Y-91627555D01*
X143507601Y-91723258D01*
X143366762Y-92012787D01*
X143285115Y-92324229D01*
X143265795Y-92645615D01*
X142842300Y-92645615D01*
X142749641Y-92451080D01*
X142575588Y-92217731D01*
X142359355Y-92022822D01*
X142242466Y-91953195D01*
X142424632Y-91831475D01*
X142631475Y-91624632D01*
X142749530Y-91447950D01*
X143951555Y-91447950D01*
X144907000Y-92403395D01*
X145862445Y-91447950D01*
X145766742Y-91183601D01*
X145477213Y-91042762D01*
X145165771Y-90961115D01*
X144844385Y-90941795D01*
X144525405Y-90985546D01*
X144221089Y-91090686D01*
X144047258Y-91183601D01*
X143951555Y-91447950D01*
X142749530Y-91447950D01*
X142793990Y-91381411D01*
X142905932Y-91111158D01*
X142963000Y-90824260D01*
X142963000Y-90531740D01*
X142905932Y-90244842D01*
X142793990Y-89974589D01*
X142631475Y-89731368D01*
X142424632Y-89524525D01*
X142250240Y-89408000D01*
X142424632Y-89291475D01*
X142631475Y-89084632D01*
X142793990Y-88841411D01*
X142905932Y-88571158D01*
X142963000Y-88284260D01*
X142963000Y-87991740D01*
X142905932Y-87704842D01*
X142793990Y-87434589D01*
X142631475Y-87191368D01*
X142424632Y-86984525D01*
X142250240Y-86868000D01*
X142424632Y-86751475D01*
X142631475Y-86544632D01*
X142793990Y-86301411D01*
X142905932Y-86031158D01*
X142963000Y-85744260D01*
X142963000Y-85451740D01*
X142905932Y-85164842D01*
X142793990Y-84894589D01*
X142631475Y-84651368D01*
X142499620Y-84519513D01*
X142572180Y-84497502D01*
X142682494Y-84438537D01*
X142779185Y-84359185D01*
X142858537Y-84262494D01*
X142917502Y-84152180D01*
X142953812Y-84032482D01*
X142966072Y-83908000D01*
X142966072Y-82208000D01*
X142953812Y-82083518D01*
X142917502Y-81963820D01*
X142858537Y-81853506D01*
X142779185Y-81756815D01*
X142682494Y-81677463D01*
X142572180Y-81618498D01*
X142452482Y-81582188D01*
X142328000Y-81569928D01*
X140993639Y-81569928D01*
X141105405Y-81547696D01*
X141348359Y-81447061D01*
X141567013Y-81300962D01*
X141752962Y-81115013D01*
X141899061Y-80896359D01*
X141999696Y-80653405D01*
X142051000Y-80395486D01*
X142051000Y-80132514D01*
X141999696Y-79874595D01*
X141899061Y-79631641D01*
X141752962Y-79412987D01*
X141567013Y-79227038D01*
X141348359Y-79080939D01*
X141105405Y-78980304D01*
X140847486Y-78929000D01*
X140584514Y-78929000D01*
X140361337Y-78973393D01*
X140298976Y-78856726D01*
X140204003Y-78741001D01*
X140175006Y-78717204D01*
X139937689Y-78479887D01*
X139974001Y-78297336D01*
X139974001Y-78014666D01*
X139918854Y-77737427D01*
X139810681Y-77476274D01*
X139653638Y-77241242D01*
X139453760Y-77041364D01*
X139221242Y-76886001D01*
X139453760Y-76730638D01*
X139653638Y-76530760D01*
X139810681Y-76295728D01*
X139848485Y-76204460D01*
X139864987Y-76220962D01*
X140083641Y-76367061D01*
X140326595Y-76467696D01*
X140584514Y-76519000D01*
X140847486Y-76519000D01*
X141105405Y-76467696D01*
X141348359Y-76367061D01*
X141567013Y-76220962D01*
X141752962Y-76035013D01*
X141899061Y-75816359D01*
X141999696Y-75573405D01*
X142051000Y-75315486D01*
X142051000Y-75052514D01*
X141999696Y-74794595D01*
X141899061Y-74551641D01*
X141829143Y-74447000D01*
X146279001Y-74447000D01*
X146279001Y-91713339D01*
X146042050Y-91627555D01*
X145086605Y-92583000D01*
X146042050Y-93538445D01*
X146279001Y-93452661D01*
X146279001Y-94877759D01*
X146260984Y-94862973D01*
X146150670Y-94804008D01*
X146030972Y-94767698D01*
X145906490Y-94755438D01*
X143907510Y-94755438D01*
X143783028Y-94767698D01*
X143663330Y-94804008D01*
X143553016Y-94862973D01*
X143456325Y-94942325D01*
X143410634Y-94998000D01*
X142756178Y-94998000D01*
X142631475Y-94811368D01*
X142424632Y-94604525D01*
X142242466Y-94482805D01*
X142359355Y-94413178D01*
X142575588Y-94218269D01*
X142749641Y-93984920D01*
X142874825Y-93722099D01*
X142876053Y-93718050D01*
X143951555Y-93718050D01*
X144047258Y-93982399D01*
X144336787Y-94123238D01*
X144648229Y-94204885D01*
X144969615Y-94224205D01*
X145288595Y-94180454D01*
X145592911Y-94075314D01*
X145766742Y-93982399D01*
X145862445Y-93718050D01*
X144907000Y-92762605D01*
X143951555Y-93718050D01*
X142876053Y-93718050D01*
X142919476Y-93574890D01*
X142798155Y-93345000D01*
X141605000Y-93345000D01*
X141605000Y-93365000D01*
X141351000Y-93365000D01*
X141351000Y-93345000D01*
X140157845Y-93345000D01*
X140036524Y-93574890D01*
X140081175Y-93722099D01*
X140206359Y-93984920D01*
X140380412Y-94218269D01*
X140596645Y-94413178D01*
X140713534Y-94482805D01*
X140531368Y-94604525D01*
X140324525Y-94811368D01*
X140162010Y-95054589D01*
X140111720Y-95176001D01*
X139757044Y-95176001D01*
X139653638Y-95021242D01*
X139453760Y-94821364D01*
X139221242Y-94666001D01*
X139453760Y-94510638D01*
X139653638Y-94310760D01*
X139810681Y-94075728D01*
X139918854Y-93814575D01*
X139974001Y-93537336D01*
X139974001Y-93254666D01*
X139918854Y-92977427D01*
X139810681Y-92716274D01*
X139653638Y-92481242D01*
X139453760Y-92281364D01*
X139218728Y-92124321D01*
X139208136Y-92119934D01*
X139394132Y-92008386D01*
X139602520Y-91819415D01*
X139770038Y-91593421D01*
X139890247Y-91339088D01*
X139930905Y-91205040D01*
X139808916Y-90983001D01*
X138666001Y-90983001D01*
X138666001Y-91003001D01*
X138412001Y-91003001D01*
X138412001Y-90983001D01*
X137269086Y-90983001D01*
X137147097Y-91205040D01*
X137187755Y-91339088D01*
X137307964Y-91593421D01*
X137475482Y-91819415D01*
X137683870Y-92008386D01*
X137869866Y-92119934D01*
X137859274Y-92124321D01*
X137624242Y-92281364D01*
X137424364Y-92481242D01*
X137267321Y-92716274D01*
X137159148Y-92977427D01*
X137104001Y-93254666D01*
X137104001Y-93537336D01*
X137159148Y-93814575D01*
X137267321Y-94075728D01*
X137424364Y-94310760D01*
X137624242Y-94510638D01*
X137856760Y-94666001D01*
X137624242Y-94821364D01*
X137424364Y-95021242D01*
X137267321Y-95256274D01*
X137159148Y-95517427D01*
X137104001Y-95794666D01*
X137104001Y-96077336D01*
X137159148Y-96354575D01*
X137267321Y-96615728D01*
X137424364Y-96850760D01*
X137624242Y-97050638D01*
X137856760Y-97206001D01*
X137624242Y-97361364D01*
X137424364Y-97561242D01*
X137267321Y-97796274D01*
X137159148Y-98057427D01*
X137104001Y-98334666D01*
X137104001Y-98617336D01*
X137159148Y-98894575D01*
X137267321Y-99155728D01*
X137424364Y-99390760D01*
X137624242Y-99590638D01*
X137856760Y-99746001D01*
X137624242Y-99901364D01*
X137424364Y-100101242D01*
X137267321Y-100336274D01*
X137159148Y-100597427D01*
X137104001Y-100874666D01*
X137104001Y-101157336D01*
X137159148Y-101434575D01*
X137267321Y-101695728D01*
X137424364Y-101930760D01*
X137624242Y-102130638D01*
X137856760Y-102286001D01*
X137624242Y-102441364D01*
X137424364Y-102641242D01*
X137267321Y-102876274D01*
X137159148Y-103137427D01*
X137104001Y-103414666D01*
X137104001Y-103697336D01*
X137159148Y-103974575D01*
X137267321Y-104235728D01*
X137424364Y-104470760D01*
X137624242Y-104670638D01*
X137856760Y-104826001D01*
X137624242Y-104981364D01*
X137424364Y-105181242D01*
X137267321Y-105416274D01*
X137159148Y-105677427D01*
X137104001Y-105954666D01*
X137104001Y-106237336D01*
X137148492Y-106461002D01*
X132309510Y-106461002D01*
X132354001Y-106237336D01*
X132354001Y-105954666D01*
X132298854Y-105677427D01*
X132190681Y-105416274D01*
X132033638Y-105181242D01*
X131833760Y-104981364D01*
X131601242Y-104826001D01*
X131833760Y-104670638D01*
X132033638Y-104470760D01*
X132190681Y-104235728D01*
X132298854Y-103974575D01*
X132354001Y-103697336D01*
X132354001Y-103414666D01*
X132298854Y-103137427D01*
X132190681Y-102876274D01*
X132033638Y-102641242D01*
X131833760Y-102441364D01*
X131601242Y-102286001D01*
X131833760Y-102130638D01*
X132033638Y-101930760D01*
X132190681Y-101695728D01*
X132298854Y-101434575D01*
X132354001Y-101157336D01*
X132354001Y-100874666D01*
X132298854Y-100597427D01*
X132190681Y-100336274D01*
X132033638Y-100101242D01*
X131833760Y-99901364D01*
X131601242Y-99746001D01*
X131833760Y-99590638D01*
X132033638Y-99390760D01*
X132190681Y-99155728D01*
X132298854Y-98894575D01*
X132354001Y-98617336D01*
X132354001Y-98334666D01*
X132298854Y-98057427D01*
X132190681Y-97796274D01*
X132033638Y-97561242D01*
X131833760Y-97361364D01*
X131601242Y-97206001D01*
X131833760Y-97050638D01*
X132033638Y-96850760D01*
X132190681Y-96615728D01*
X132298854Y-96354575D01*
X132354001Y-96077336D01*
X132354001Y-95794666D01*
X132298854Y-95517427D01*
X132190681Y-95256274D01*
X132033638Y-95021242D01*
X131833760Y-94821364D01*
X131598728Y-94664321D01*
X131588136Y-94659934D01*
X131774132Y-94548386D01*
X131982520Y-94359415D01*
X132150038Y-94133421D01*
X132270247Y-93879088D01*
X132310905Y-93745040D01*
X132188916Y-93523001D01*
X131046001Y-93523001D01*
X131046001Y-93543001D01*
X130792001Y-93543001D01*
X130792001Y-93523001D01*
X130772001Y-93523001D01*
X130772001Y-93269001D01*
X130792001Y-93269001D01*
X130792001Y-93249001D01*
X131046001Y-93249001D01*
X131046001Y-93269001D01*
X132188916Y-93269001D01*
X132310905Y-93046962D01*
X132270247Y-92912914D01*
X132150038Y-92658581D01*
X131982520Y-92432587D01*
X131774132Y-92243616D01*
X131588136Y-92132068D01*
X131598728Y-92127681D01*
X131833760Y-91970638D01*
X132033638Y-91770760D01*
X132190681Y-91535728D01*
X132298854Y-91274575D01*
X132354001Y-90997336D01*
X132354001Y-90714666D01*
X132298854Y-90437427D01*
X132190681Y-90176274D01*
X132033638Y-89941242D01*
X131833760Y-89741364D01*
X131601242Y-89586001D01*
X131833760Y-89430638D01*
X132033638Y-89230760D01*
X132190681Y-88995728D01*
X132298854Y-88734575D01*
X132354001Y-88457336D01*
X132354001Y-88174666D01*
X132298854Y-87897427D01*
X132190681Y-87636274D01*
X132033638Y-87401242D01*
X131833760Y-87201364D01*
X131601242Y-87046001D01*
X131833760Y-86890638D01*
X132033638Y-86690760D01*
X132190681Y-86455728D01*
X132298854Y-86194575D01*
X132354001Y-85917336D01*
X132354001Y-85634666D01*
X132298854Y-85357427D01*
X132190681Y-85096274D01*
X132033638Y-84861242D01*
X131833760Y-84661364D01*
X131601242Y-84506001D01*
X131833760Y-84350638D01*
X132033638Y-84150760D01*
X132190681Y-83915728D01*
X132298854Y-83654575D01*
X132354001Y-83377336D01*
X132354001Y-83094666D01*
X132298854Y-82817427D01*
X132190681Y-82556274D01*
X132033638Y-82321242D01*
X131833760Y-82121364D01*
X131601242Y-81966001D01*
X131833760Y-81810638D01*
X132033638Y-81610760D01*
X132190681Y-81375728D01*
X132298854Y-81114575D01*
X132354001Y-80837336D01*
X132354001Y-80554666D01*
X132298854Y-80277427D01*
X132190681Y-80016274D01*
X132033638Y-79781242D01*
X131833760Y-79581364D01*
X131601242Y-79426001D01*
X131833760Y-79270638D01*
X132033638Y-79070760D01*
X132190681Y-78835728D01*
X132298854Y-78574575D01*
X132354001Y-78297336D01*
X132354001Y-78014666D01*
X132298854Y-77737427D01*
X132190681Y-77476274D01*
X132033638Y-77241242D01*
X131835040Y-77042644D01*
X131843483Y-77041813D01*
X131963181Y-77005503D01*
X132073495Y-76946538D01*
X132170186Y-76867186D01*
X132249538Y-76770495D01*
X132308503Y-76660181D01*
X132344813Y-76540483D01*
X132357073Y-76416001D01*
X132357073Y-74816001D01*
X132344813Y-74691519D01*
X132308503Y-74571821D01*
X132249538Y-74461507D01*
X132237632Y-74447000D01*
X137705604Y-74447000D01*
X137624242Y-74501364D01*
G37*
X137624242Y-74501364D02*
X137424364Y-74701242D01*
X137267321Y-74936274D01*
X137159148Y-75197427D01*
X137104001Y-75474666D01*
X137104001Y-75757336D01*
X137159148Y-76034575D01*
X137267321Y-76295728D01*
X137424364Y-76530760D01*
X137624242Y-76730638D01*
X137856760Y-76886001D01*
X137624242Y-77041364D01*
X137424364Y-77241242D01*
X137267321Y-77476274D01*
X137159148Y-77737427D01*
X137104001Y-78014666D01*
X137104001Y-78297336D01*
X137159148Y-78574575D01*
X137267321Y-78835728D01*
X137424364Y-79070760D01*
X137624242Y-79270638D01*
X137856760Y-79426001D01*
X137624242Y-79581364D01*
X137424364Y-79781242D01*
X137267321Y-80016274D01*
X137159148Y-80277427D01*
X137104001Y-80554666D01*
X137104001Y-80837336D01*
X137159148Y-81114575D01*
X137267321Y-81375728D01*
X137424364Y-81610760D01*
X137624242Y-81810638D01*
X137856760Y-81966001D01*
X137624242Y-82121364D01*
X137424364Y-82321242D01*
X137267321Y-82556274D01*
X137159148Y-82817427D01*
X137104001Y-83094666D01*
X137104001Y-83377336D01*
X137159148Y-83654575D01*
X137267321Y-83915728D01*
X137424364Y-84150760D01*
X137624242Y-84350638D01*
X137856760Y-84506001D01*
X137624242Y-84661364D01*
X137424364Y-84861242D01*
X137267321Y-85096274D01*
X137159148Y-85357427D01*
X137104001Y-85634666D01*
X137104001Y-85917336D01*
X137159148Y-86194575D01*
X137267321Y-86455728D01*
X137424364Y-86690760D01*
X137624242Y-86890638D01*
X137856760Y-87046001D01*
X137624242Y-87201364D01*
X137424364Y-87401242D01*
X137267321Y-87636274D01*
X137159148Y-87897427D01*
X137104001Y-88174666D01*
X137104001Y-88457336D01*
X137159148Y-88734575D01*
X137267321Y-88995728D01*
X137424364Y-89230760D01*
X137624242Y-89430638D01*
X137859274Y-89587681D01*
X137869866Y-89592068D01*
X137683870Y-89703616D01*
X137475482Y-89892587D01*
X137307964Y-90118581D01*
X137187755Y-90372914D01*
X137147097Y-90506962D01*
X137269086Y-90729001D01*
X138412001Y-90729001D01*
X138412001Y-90709001D01*
X138666001Y-90709001D01*
X138666001Y-90729001D01*
X139808916Y-90729001D01*
X139930905Y-90506962D01*
X139890247Y-90372914D01*
X139770038Y-90118581D01*
X139602520Y-89892587D01*
X139394132Y-89703616D01*
X139208136Y-89592068D01*
X139218728Y-89587681D01*
X139453760Y-89430638D01*
X139542999Y-89341399D01*
X139542999Y-89465676D01*
X139539323Y-89502999D01*
X139542999Y-89540321D01*
X139542999Y-89540331D01*
X139553996Y-89651984D01*
X139581109Y-89741364D01*
X139597453Y-89795245D01*
X139668025Y-89927275D01*
X139679488Y-89941242D01*
X139762998Y-90043000D01*
X139792002Y-90066803D01*
X140036791Y-90311592D01*
X139993000Y-90531740D01*
X139993000Y-90824260D01*
X140050068Y-91111158D01*
X140162010Y-91381411D01*
X140324525Y-91624632D01*
X140531368Y-91831475D01*
X140713534Y-91953195D01*
X140596645Y-92022822D01*
X140380412Y-92217731D01*
X140206359Y-92451080D01*
X140081175Y-92713901D01*
X140036524Y-92861110D01*
X140157845Y-93091000D01*
X141351000Y-93091000D01*
X141351000Y-93071000D01*
X141605000Y-93071000D01*
X141605000Y-93091000D01*
X142798155Y-93091000D01*
X142919476Y-92861110D01*
X142874825Y-92713901D01*
X142842300Y-92645615D01*
X143265795Y-92645615D01*
X143309546Y-92964595D01*
X143414686Y-93268911D01*
X143507601Y-93442742D01*
X143771950Y-93538445D01*
X144727395Y-92583000D01*
X143771950Y-91627555D01*
X143507601Y-91723258D01*
X143366762Y-92012787D01*
X143285115Y-92324229D01*
X143265795Y-92645615D01*
X142842300Y-92645615D01*
X142749641Y-92451080D01*
X142575588Y-92217731D01*
X142359355Y-92022822D01*
X142242466Y-91953195D01*
X142424632Y-91831475D01*
X142631475Y-91624632D01*
X142749530Y-91447950D01*
X143951555Y-91447950D01*
X144907000Y-92403395D01*
X145862445Y-91447950D01*
X145766742Y-91183601D01*
X145477213Y-91042762D01*
X145165771Y-90961115D01*
X144844385Y-90941795D01*
X144525405Y-90985546D01*
X144221089Y-91090686D01*
X144047258Y-91183601D01*
X143951555Y-91447950D01*
X142749530Y-91447950D01*
X142793990Y-91381411D01*
X142905932Y-91111158D01*
X142963000Y-90824260D01*
X142963000Y-90531740D01*
X142905932Y-90244842D01*
X142793990Y-89974589D01*
X142631475Y-89731368D01*
X142424632Y-89524525D01*
X142250240Y-89408000D01*
X142424632Y-89291475D01*
X142631475Y-89084632D01*
X142793990Y-88841411D01*
X142905932Y-88571158D01*
X142963000Y-88284260D01*
X142963000Y-87991740D01*
X142905932Y-87704842D01*
X142793990Y-87434589D01*
X142631475Y-87191368D01*
X142424632Y-86984525D01*
X142250240Y-86868000D01*
X142424632Y-86751475D01*
X142631475Y-86544632D01*
X142793990Y-86301411D01*
X142905932Y-86031158D01*
X142963000Y-85744260D01*
X142963000Y-85451740D01*
X142905932Y-85164842D01*
X142793990Y-84894589D01*
X142631475Y-84651368D01*
X142499620Y-84519513D01*
X142572180Y-84497502D01*
X142682494Y-84438537D01*
X142779185Y-84359185D01*
X142858537Y-84262494D01*
X142917502Y-84152180D01*
X142953812Y-84032482D01*
X142966072Y-83908000D01*
X142966072Y-82208000D01*
X142953812Y-82083518D01*
X142917502Y-81963820D01*
X142858537Y-81853506D01*
X142779185Y-81756815D01*
X142682494Y-81677463D01*
X142572180Y-81618498D01*
X142452482Y-81582188D01*
X142328000Y-81569928D01*
X140993639Y-81569928D01*
X141105405Y-81547696D01*
X141348359Y-81447061D01*
X141567013Y-81300962D01*
X141752962Y-81115013D01*
X141899061Y-80896359D01*
X141999696Y-80653405D01*
X142051000Y-80395486D01*
X142051000Y-80132514D01*
X141999696Y-79874595D01*
X141899061Y-79631641D01*
X141752962Y-79412987D01*
X141567013Y-79227038D01*
X141348359Y-79080939D01*
X141105405Y-78980304D01*
X140847486Y-78929000D01*
X140584514Y-78929000D01*
X140361337Y-78973393D01*
X140298976Y-78856726D01*
X140204003Y-78741001D01*
X140175006Y-78717204D01*
X139937689Y-78479887D01*
X139974001Y-78297336D01*
X139974001Y-78014666D01*
X139918854Y-77737427D01*
X139810681Y-77476274D01*
X139653638Y-77241242D01*
X139453760Y-77041364D01*
X139221242Y-76886001D01*
X139453760Y-76730638D01*
X139653638Y-76530760D01*
X139810681Y-76295728D01*
X139848485Y-76204460D01*
X139864987Y-76220962D01*
X140083641Y-76367061D01*
X140326595Y-76467696D01*
X140584514Y-76519000D01*
X140847486Y-76519000D01*
X141105405Y-76467696D01*
X141348359Y-76367061D01*
X141567013Y-76220962D01*
X141752962Y-76035013D01*
X141899061Y-75816359D01*
X141999696Y-75573405D01*
X142051000Y-75315486D01*
X142051000Y-75052514D01*
X141999696Y-74794595D01*
X141899061Y-74551641D01*
X141829143Y-74447000D01*
X146279001Y-74447000D01*
X146279001Y-91713339D01*
X146042050Y-91627555D01*
X145086605Y-92583000D01*
X146042050Y-93538445D01*
X146279001Y-93452661D01*
X146279001Y-94877759D01*
X146260984Y-94862973D01*
X146150670Y-94804008D01*
X146030972Y-94767698D01*
X145906490Y-94755438D01*
X143907510Y-94755438D01*
X143783028Y-94767698D01*
X143663330Y-94804008D01*
X143553016Y-94862973D01*
X143456325Y-94942325D01*
X143410634Y-94998000D01*
X142756178Y-94998000D01*
X142631475Y-94811368D01*
X142424632Y-94604525D01*
X142242466Y-94482805D01*
X142359355Y-94413178D01*
X142575588Y-94218269D01*
X142749641Y-93984920D01*
X142874825Y-93722099D01*
X142876053Y-93718050D01*
X143951555Y-93718050D01*
X144047258Y-93982399D01*
X144336787Y-94123238D01*
X144648229Y-94204885D01*
X144969615Y-94224205D01*
X145288595Y-94180454D01*
X145592911Y-94075314D01*
X145766742Y-93982399D01*
X145862445Y-93718050D01*
X144907000Y-92762605D01*
X143951555Y-93718050D01*
X142876053Y-93718050D01*
X142919476Y-93574890D01*
X142798155Y-93345000D01*
X141605000Y-93345000D01*
X141605000Y-93365000D01*
X141351000Y-93365000D01*
X141351000Y-93345000D01*
X140157845Y-93345000D01*
X140036524Y-93574890D01*
X140081175Y-93722099D01*
X140206359Y-93984920D01*
X140380412Y-94218269D01*
X140596645Y-94413178D01*
X140713534Y-94482805D01*
X140531368Y-94604525D01*
X140324525Y-94811368D01*
X140162010Y-95054589D01*
X140111720Y-95176001D01*
X139757044Y-95176001D01*
X139653638Y-95021242D01*
X139453760Y-94821364D01*
X139221242Y-94666001D01*
X139453760Y-94510638D01*
X139653638Y-94310760D01*
X139810681Y-94075728D01*
X139918854Y-93814575D01*
X139974001Y-93537336D01*
X139974001Y-93254666D01*
X139918854Y-92977427D01*
X139810681Y-92716274D01*
X139653638Y-92481242D01*
X139453760Y-92281364D01*
X139218728Y-92124321D01*
X139208136Y-92119934D01*
X139394132Y-92008386D01*
X139602520Y-91819415D01*
X139770038Y-91593421D01*
X139890247Y-91339088D01*
X139930905Y-91205040D01*
X139808916Y-90983001D01*
X138666001Y-90983001D01*
X138666001Y-91003001D01*
X138412001Y-91003001D01*
X138412001Y-90983001D01*
X137269086Y-90983001D01*
X137147097Y-91205040D01*
X137187755Y-91339088D01*
X137307964Y-91593421D01*
X137475482Y-91819415D01*
X137683870Y-92008386D01*
X137869866Y-92119934D01*
X137859274Y-92124321D01*
X137624242Y-92281364D01*
X137424364Y-92481242D01*
X137267321Y-92716274D01*
X137159148Y-92977427D01*
X137104001Y-93254666D01*
X137104001Y-93537336D01*
X137159148Y-93814575D01*
X137267321Y-94075728D01*
X137424364Y-94310760D01*
X137624242Y-94510638D01*
X137856760Y-94666001D01*
X137624242Y-94821364D01*
X137424364Y-95021242D01*
X137267321Y-95256274D01*
X137159148Y-95517427D01*
X137104001Y-95794666D01*
X137104001Y-96077336D01*
X137159148Y-96354575D01*
X137267321Y-96615728D01*
X137424364Y-96850760D01*
X137624242Y-97050638D01*
X137856760Y-97206001D01*
X137624242Y-97361364D01*
X137424364Y-97561242D01*
X137267321Y-97796274D01*
X137159148Y-98057427D01*
X137104001Y-98334666D01*
X137104001Y-98617336D01*
X137159148Y-98894575D01*
X137267321Y-99155728D01*
X137424364Y-99390760D01*
X137624242Y-99590638D01*
X137856760Y-99746001D01*
X137624242Y-99901364D01*
X137424364Y-100101242D01*
X137267321Y-100336274D01*
X137159148Y-100597427D01*
X137104001Y-100874666D01*
X137104001Y-101157336D01*
X137159148Y-101434575D01*
X137267321Y-101695728D01*
X137424364Y-101930760D01*
X137624242Y-102130638D01*
X137856760Y-102286001D01*
X137624242Y-102441364D01*
X137424364Y-102641242D01*
X137267321Y-102876274D01*
X137159148Y-103137427D01*
X137104001Y-103414666D01*
X137104001Y-103697336D01*
X137159148Y-103974575D01*
X137267321Y-104235728D01*
X137424364Y-104470760D01*
X137624242Y-104670638D01*
X137856760Y-104826001D01*
X137624242Y-104981364D01*
X137424364Y-105181242D01*
X137267321Y-105416274D01*
X137159148Y-105677427D01*
X137104001Y-105954666D01*
X137104001Y-106237336D01*
X137148492Y-106461002D01*
X132309510Y-106461002D01*
X132354001Y-106237336D01*
X132354001Y-105954666D01*
X132298854Y-105677427D01*
X132190681Y-105416274D01*
X132033638Y-105181242D01*
X131833760Y-104981364D01*
X131601242Y-104826001D01*
X131833760Y-104670638D01*
X132033638Y-104470760D01*
X132190681Y-104235728D01*
X132298854Y-103974575D01*
X132354001Y-103697336D01*
X132354001Y-103414666D01*
X132298854Y-103137427D01*
X132190681Y-102876274D01*
X132033638Y-102641242D01*
X131833760Y-102441364D01*
X131601242Y-102286001D01*
X131833760Y-102130638D01*
X132033638Y-101930760D01*
X132190681Y-101695728D01*
X132298854Y-101434575D01*
X132354001Y-101157336D01*
X132354001Y-100874666D01*
X132298854Y-100597427D01*
X132190681Y-100336274D01*
X132033638Y-100101242D01*
X131833760Y-99901364D01*
X131601242Y-99746001D01*
X131833760Y-99590638D01*
X132033638Y-99390760D01*
X132190681Y-99155728D01*
X132298854Y-98894575D01*
X132354001Y-98617336D01*
X132354001Y-98334666D01*
X132298854Y-98057427D01*
X132190681Y-97796274D01*
X132033638Y-97561242D01*
X131833760Y-97361364D01*
X131601242Y-97206001D01*
X131833760Y-97050638D01*
X132033638Y-96850760D01*
X132190681Y-96615728D01*
X132298854Y-96354575D01*
X132354001Y-96077336D01*
X132354001Y-95794666D01*
X132298854Y-95517427D01*
X132190681Y-95256274D01*
X132033638Y-95021242D01*
X131833760Y-94821364D01*
X131598728Y-94664321D01*
X131588136Y-94659934D01*
X131774132Y-94548386D01*
X131982520Y-94359415D01*
X132150038Y-94133421D01*
X132270247Y-93879088D01*
X132310905Y-93745040D01*
X132188916Y-93523001D01*
X131046001Y-93523001D01*
X131046001Y-93543001D01*
X130792001Y-93543001D01*
X130792001Y-93523001D01*
X130772001Y-93523001D01*
X130772001Y-93269001D01*
X130792001Y-93269001D01*
X130792001Y-93249001D01*
X131046001Y-93249001D01*
X131046001Y-93269001D01*
X132188916Y-93269001D01*
X132310905Y-93046962D01*
X132270247Y-92912914D01*
X132150038Y-92658581D01*
X131982520Y-92432587D01*
X131774132Y-92243616D01*
X131588136Y-92132068D01*
X131598728Y-92127681D01*
X131833760Y-91970638D01*
X132033638Y-91770760D01*
X132190681Y-91535728D01*
X132298854Y-91274575D01*
X132354001Y-90997336D01*
X132354001Y-90714666D01*
X132298854Y-90437427D01*
X132190681Y-90176274D01*
X132033638Y-89941242D01*
X131833760Y-89741364D01*
X131601242Y-89586001D01*
X131833760Y-89430638D01*
X132033638Y-89230760D01*
X132190681Y-88995728D01*
X132298854Y-88734575D01*
X132354001Y-88457336D01*
X132354001Y-88174666D01*
X132298854Y-87897427D01*
X132190681Y-87636274D01*
X132033638Y-87401242D01*
X131833760Y-87201364D01*
X131601242Y-87046001D01*
X131833760Y-86890638D01*
X132033638Y-86690760D01*
X132190681Y-86455728D01*
X132298854Y-86194575D01*
X132354001Y-85917336D01*
X132354001Y-85634666D01*
X132298854Y-85357427D01*
X132190681Y-85096274D01*
X132033638Y-84861242D01*
X131833760Y-84661364D01*
X131601242Y-84506001D01*
X131833760Y-84350638D01*
X132033638Y-84150760D01*
X132190681Y-83915728D01*
X132298854Y-83654575D01*
X132354001Y-83377336D01*
X132354001Y-83094666D01*
X132298854Y-82817427D01*
X132190681Y-82556274D01*
X132033638Y-82321242D01*
X131833760Y-82121364D01*
X131601242Y-81966001D01*
X131833760Y-81810638D01*
X132033638Y-81610760D01*
X132190681Y-81375728D01*
X132298854Y-81114575D01*
X132354001Y-80837336D01*
X132354001Y-80554666D01*
X132298854Y-80277427D01*
X132190681Y-80016274D01*
X132033638Y-79781242D01*
X131833760Y-79581364D01*
X131601242Y-79426001D01*
X131833760Y-79270638D01*
X132033638Y-79070760D01*
X132190681Y-78835728D01*
X132298854Y-78574575D01*
X132354001Y-78297336D01*
X132354001Y-78014666D01*
X132298854Y-77737427D01*
X132190681Y-77476274D01*
X132033638Y-77241242D01*
X131835040Y-77042644D01*
X131843483Y-77041813D01*
X131963181Y-77005503D01*
X132073495Y-76946538D01*
X132170186Y-76867186D01*
X132249538Y-76770495D01*
X132308503Y-76660181D01*
X132344813Y-76540483D01*
X132357073Y-76416001D01*
X132357073Y-74816001D01*
X132344813Y-74691519D01*
X132308503Y-74571821D01*
X132249538Y-74461507D01*
X132237632Y-74447000D01*
X137705604Y-74447000D01*
X137624242Y-74501364D01*
M02*
